<?xml version="1.0" encoding="UTF-8"?>
<svg id="Warstwa_1" data-name="Warstwa 1" xmlns="http://www.w3.org/2000/svg" width="118.65" height="113" xmlns:xlink="http://www.w3.org/1999/xlink" viewBox="0 0 118.65 113">
  <defs>
    <style>
      .cls-1 {
        fill: url(#Gradient_bez_nazwy_205-2);
      }

      .cls-2 {
        fill: url(#Gradient_bez_nazwy_205-3);
      }

      .cls-3 {
        fill: url(#Gradient_bez_nazwy_205);
      }
    </style>
    <linearGradient id="Gradient_bez_nazwy_205" data-name="Gradient bez nazwy 205" x1="115.61" y1="10.88" x2="39.47" y2="66.77" gradientUnits="userSpaceOnUse">
      <stop offset=".04" stop-color="#00beef"/>
      <stop offset=".11" stop-color="#00b2ea"/>
      <stop offset=".23" stop-color="#0095df"/>
      <stop offset=".39" stop-color="#0065cc"/>
      <stop offset=".44" stop-color="#0052c5"/>
      <stop offset=".5" stop-color="#0049b0"/>
      <stop offset=".61" stop-color="#00327a"/>
      <stop offset=".77" stop-color="#000f24"/>
      <stop offset=".83" stop-color="#000"/>
    </linearGradient>
    <linearGradient id="Gradient_bez_nazwy_205-2" data-name="Gradient bez nazwy 205" x1="49.24" y1="38.5" x2="7.62" y2="69.06" xlink:href="#Gradient_bez_nazwy_205"/>
    <linearGradient id="Gradient_bez_nazwy_205-3" data-name="Gradient bez nazwy 205" x1="116.44" y1="32.17" x2="7.46" y2="112.18" xlink:href="#Gradient_bez_nazwy_205"/>
  </defs>
  <path class="cls-3" d="M49.06,62.91c-.02.95-.03,1.89-.05,2.84.97,0,1.93,0,2.9.01h19.18c1.57,0,2.85-1.28,2.85-2.85v-16.66c-.02-.37-.02-1.32.59-2.23,1.08-1.59,3.06-1.6,3.23-1.6h30.08v-23.12c0-.29-.02-.81-.31-1.35-.57-1.1-1.71-1.41-1.91-1.46h-31.96c-.29.03-1.54.2-2.5,1.3-.9,1.02-.95,2.18-.96,2.49v18.38c0,.28-.03,1.78-1.24,2.99-.2.2-1.28,1.24-2.99,1.24h-16.91v20.02Z"/>
  <path class="cls-1" d="M42.39,65.75c1.57,0,2.85-1.28,2.85-2.85v-20.02H12.62c-.14,0-.78.05-1.29.58-.6.63-.52,1.43-.51,1.54v20.75h31.57Z"/>
  <path class="cls-2" d="M80.61,46.24c-1.57,0-2.85,1.28-2.85,2.85v16.66c0,.25-.05,1.77-1.31,2.88-1.02.89-2.19.94-2.51.94H10.82v26.09c-.02.25,0,.65.17,1.11.04.1.18.44.49.79.06.06.31.34.74.59.6.35,1.2.43,1.57.44,9.49,0,18.99,0,28.48,0,.17-.02.43-.07.71-.17,0,0,.5-.18.92-.5.57-.44,1.12-1.39,1.3-2.63,0-2.23,0-4.46,0-6.69.01-1.66.02-3.32.04-4.98-.02-.14-.21-1.29.62-2.22.95-1.05,2.35-.81,2.42-.79,1.08.02,2.16.04,3.26.06,4.15.06,8.24.05,12.25-.02,13.81-.12,27.61-.25,41.42-.37.33-.1,1.34-.45,2.04-1.48.44-.65.56-1.29.6-1.65,0-10.31,0-20.61,0-30.92h-27.23Z"/>
</svg>