<?xml version="1.0" encoding="UTF-8"?>
<svg id="Warstwa_1" data-name="Warstwa 1" xmlns="http://www.w3.org/2000/svg" width="600.05" height="112.78" xmlns:xlink="http://www.w3.org/1999/xlink" viewBox="0 0 600.05 112.78">
  <defs>
    <style>
      .cls-1 {
        fill: #0065f3;
      }

      .cls-2 {
        fill: url(#Gradient_bez_nazwy_205-2);
      }

      .cls-3 {
        fill: url(#Gradient_bez_nazwy_205-3);
      }

      .cls-4 {
        fill: #091120;
      }

      .cls-5 {
        fill: url(#Gradient_bez_nazwy_205);
      }
    </style>
    <linearGradient id="Gradient_bez_nazwy_205" data-name="Gradient bez nazwy 205" x1="142.61" y1="4.88" x2="58.57" y2="66.58" gradientUnits="userSpaceOnUse">
      <stop offset=".04" stop-color="#00beef"/>
      <stop offset=".11" stop-color="#00b2ea"/>
      <stop offset=".23" stop-color="#0095df"/>
      <stop offset=".39" stop-color="#0065cc"/>
      <stop offset=".44" stop-color="#0052c5"/>
      <stop offset=".5" stop-color="#0049b0"/>
      <stop offset=".61" stop-color="#00327a"/>
      <stop offset=".77" stop-color="#000f24"/>
      <stop offset=".83" stop-color="#000"/>
    </linearGradient>
    <linearGradient id="Gradient_bez_nazwy_205-2" data-name="Gradient bez nazwy 205" x1="69.35" y1="35.37" x2="23.4" y2="69.1" xlink:href="#Gradient_bez_nazwy_205"/>
    <linearGradient id="Gradient_bez_nazwy_205-3" data-name="Gradient bez nazwy 205" x1="143.53" y1="28.39" x2="23.23" y2="116.7" xlink:href="#Gradient_bez_nazwy_205"/>
  </defs>
  <g>
    <path class="cls-5" d="M69.15,62.31c-.02,1.04-.04,2.09-.05,3.13,1.07,0,2.13,0,3.2.01h21.17c1.74,0,3.14-1.41,3.14-3.14v-18.39c-.02-.41-.02-1.45.66-2.46,1.19-1.76,3.38-1.77,3.56-1.76h33.2V14.17c0-.32-.03-.89-.34-1.49-.63-1.22-1.89-1.55-2.11-1.61h-35.28c-.32.03-1.7.22-2.76,1.43-.99,1.13-1.05,2.41-1.06,2.75v20.29c0,.31-.03,1.97-1.37,3.3-.22.22-1.41,1.37-3.3,1.37h-18.67v22.1Z"/>
    <path class="cls-2" d="M61.78,65.45c1.74,0,3.14-1.41,3.14-3.14v-22.1H28.92c-.16,0-.86.06-1.42.64-.66.69-.58,1.57-.56,1.7v22.9h34.85Z"/>
    <path class="cls-3" d="M103.97,43.92c-1.74,0-3.14,1.41-3.14,3.14v18.39c0,.27-.05,1.96-1.45,3.18-1.13.99-2.42,1.04-2.77,1.04H26.94v28.8c-.02.27,0,.72.19,1.22.04.11.2.49.54.87.06.07.34.38.81.65.67.38,1.32.47,1.73.49,10.48,0,20.96,0,31.44,0,.19-.02.47-.07.79-.19,0,0,.55-.19,1.02-.55.63-.48,1.24-1.53,1.43-2.9,0-2.46,0-4.92,0-7.38.01-1.83.03-3.67.04-5.5-.03-.15-.24-1.43.69-2.45,1.05-1.16,2.59-.89,2.68-.88,1.19.03,2.39.05,3.59.07,4.58.07,9.09.06,13.52-.02,15.24-.14,30.48-.27,45.72-.41.36-.11,1.48-.5,2.25-1.64.48-.72.62-1.42.66-1.82,0-11.38,0-22.75,0-34.13h-30.06Z"/>
  </g>
  <g>
    <g>
      <path class="cls-4" d="M159.06,81.72l13.97-40.94h13.01l14.36,40.94h-8.19l-12.17-35.5,2.86,1.23h-7.01l2.92-1.23-11.78,35.5h-7.96ZM168.82,70.84l2.52-6.73h16.6l2.47,6.73h-21.59Z"/>
      <path class="cls-4" d="M206.46,81.94v-41.45h7.96v41.45h-7.96ZM213.3,81.94v-7.4h8.47c2.13,0,4.03-.33,5.69-.98,1.66-.65,3.08-1.58,4.23-2.78,1.16-1.2,2.05-2.61,2.66-4.23.62-1.63.93-3.43.93-5.41s-.31-3.9-.93-5.52c-.62-1.63-1.5-3.02-2.66-4.18-1.16-1.16-2.57-2.04-4.23-2.64-1.66-.6-3.56-.9-5.69-.9h-8.47v-7.4h7.96c3.7,0,6.94.54,9.7,1.63,2.77,1.08,5.07,2.57,6.9,4.46,1.83,1.89,3.21,4.04,4.12,6.45s1.37,4.91,1.37,7.49v1.23c0,2.47-.46,4.9-1.37,7.29-.92,2.39-2.29,4.56-4.12,6.51-1.83,1.95-4.13,3.5-6.9,4.66-2.77,1.16-6,1.74-9.7,1.74h-7.96Z"/>
      <path class="cls-4" d="M250.48,81.72v-41.22h7.96v41.22h-7.96ZM256.09,68.03v-6.45h10.43c1.46,0,2.72-.3,3.79-.9,1.07-.6,1.9-1.44,2.5-2.52.6-1.08.9-2.32.9-3.7s-.3-2.67-.9-3.76c-.6-1.08-1.43-1.93-2.5-2.52-1.07-.6-2.33-.9-3.79-.9h-10.43v-6.79h9.59c3.29,0,6.14.49,8.55,1.46,2.41.97,4.27,2.45,5.58,4.43,1.31,1.98,1.96,4.47,1.96,7.46v.9c0,3.03-.66,5.52-1.99,7.46s-3.19,3.4-5.58,4.37c-2.39.97-5.24,1.46-8.53,1.46h-9.59ZM275.5,81.72l-12.56-17.84h8.92l12.96,17.84h-9.31Z"/>
      <path class="cls-4" d="M309.54,82.78c-3.7,0-6.91-.65-9.62-1.96-2.71-1.31-4.96-3.02-6.73-5.13-1.78-2.11-3.1-4.39-3.98-6.84-.88-2.45-1.32-4.81-1.32-7.09v-1.23c0-2.5.45-5,1.35-7.49.9-2.49,2.25-4.74,4.07-6.76,1.81-2.02,4.07-3.64,6.76-4.85,2.69-1.21,5.85-1.82,9.48-1.82s6.73.61,9.42,1.82c2.69,1.22,4.94,2.83,6.76,4.85s3.17,4.27,4.07,6.76c.9,2.49,1.35,4.98,1.35,7.49v1.23c0,2.28-.44,4.65-1.32,7.09-.88,2.45-2.21,4.73-3.98,6.84-1.78,2.11-4.02,3.82-6.73,5.13s-5.9,1.96-9.56,1.96ZM309.54,75.38c2.09,0,3.97-.37,5.64-1.12,1.66-.75,3.08-1.79,4.26-3.11,1.18-1.33,2.08-2.84,2.69-4.54.62-1.7.92-3.5.92-5.41,0-2.06-.31-3.94-.92-5.67-.62-1.72-1.51-3.22-2.69-4.49-1.18-1.27-2.61-2.26-4.29-2.97-1.68-.71-3.55-1.07-5.61-1.07s-3.98.36-5.67,1.07c-1.68.71-3.11,1.7-4.29,2.97-1.18,1.27-2.08,2.77-2.69,4.49-.62,1.72-.92,3.61-.92,5.67,0,1.91.31,3.71.92,5.41.62,1.7,1.51,3.22,2.69,4.54,1.18,1.33,2.61,2.37,4.29,3.11,1.68.75,3.57,1.12,5.67,1.12Z"/>
      <path class="cls-4" d="M338.93,81.72v-40.94h7.96v40.94h-7.96Z"/>
    </g>
    <g>
      <path class="cls-1" d="M394.75,81.72v-40.94h7.29l12.11,27.31h.9l12.06-27.31h7.35v40.94h-5.5v-34.94l.39.11-11.61,26.36h-6.73l-11.67-26.36.45-.11v34.94h-5.05Z"/>
      <path class="cls-1" d="M446.35,81.72v-40.94h5.5v40.94h-5.5ZM450.72,45.71v-4.94h19.29v4.94h-19.29ZM450.72,63.38v-4.94h18.12v4.94h-18.12ZM450.72,81.72v-4.94h19.85v4.94h-19.85Z"/>
      <path class="cls-1" d="M480,81.94v-41.39h5.5v41.39h-5.5ZM484.38,81.94v-5.05h10.21c2.47,0,4.66-.4,6.59-1.21,1.93-.8,3.57-1.92,4.94-3.34,1.37-1.42,2.4-3.08,3.11-4.99.71-1.91,1.07-3.96,1.07-6.17,0-2.32-.36-4.42-1.07-6.31-.71-1.89-1.75-3.53-3.11-4.94-1.37-1.4-3.01-2.48-4.94-3.22-1.93-.75-4.12-1.12-6.59-1.12h-10.21v-5.05h9.65c3.7,0,6.92.57,9.65,1.71,2.73,1.14,5,2.67,6.81,4.6,1.81,1.93,3.17,4.08,4.07,6.45.9,2.38,1.35,4.8,1.35,7.26v1.23c0,2.39-.45,4.79-1.35,7.18-.9,2.39-2.25,4.56-4.07,6.51-1.81,1.94-4.08,3.51-6.81,4.68s-5.95,1.77-9.65,1.77h-9.65Z"/>
      <path class="cls-1" d="M524.48,81.72v-40.94h5.5v40.94h-5.5Z"/>
      <path class="cls-1" d="M537.6,81.72l14.75-40.94h9.31l15.2,40.94h-5.67l-13.74-37.35,2.69,1.35h-6.62l2.86-1.35-13.29,37.35h-5.5ZM546.41,69.49l1.85-4.94h17.67l1.85,4.94h-21.37Z"/>
    </g>
  </g>
</svg>